<mxfile host="app.diagrams.net" modified="2020-12-16T19:58:56.535Z" agent="5.0 (Macintosh; Intel Mac OS X 10_15_7) AppleWebKit/537.36 (KHTML, like Gecko) Chrome/87.0.4280.88 Safari/537.36" etag="W9SQzxOUB8skIEDj1NgC" version="14.0.4" type="github">
  <diagram id="Xi9QJUGRR6yHutGBNpmi" name="Page-1">
    <mxGraphModel dx="1581" dy="1017" grid="1" gridSize="10" guides="1" tooltips="1" connect="1" arrows="1" fold="1" page="1" pageScale="1" pageWidth="850" pageHeight="1100" math="0" shadow="0">
      <root>
        <mxCell id="0" />
        <mxCell id="1" parent="0" />
        <mxCell id="Dt_2Gqz261RkF5YnjLIy-1" value="" style="shape=image;verticalLabelPosition=bottom;labelBackgroundColor=#ffffff;verticalAlign=top;aspect=fixed;imageAspect=0;image=https://s3-us-west-2.amazonaws.com/forge-production.galvanize.com/content/c29d2d8a9a36c1542a5f6c8ee3399291.png;" vertex="1" parent="1">
          <mxGeometry x="21.36" y="70" width="1197.29" height="1020" as="geometry" />
        </mxCell>
        <mxCell id="Dt_2Gqz261RkF5YnjLIy-2" value="" style="rounded=1;whiteSpace=wrap;html=1;fillColor=none;strokeColor=#97D077;strokeWidth=3;" vertex="1" parent="1">
          <mxGeometry x="140" y="1030" width="1040" height="60" as="geometry" />
        </mxCell>
        <mxCell id="Dt_2Gqz261RkF5YnjLIy-4" value="Text" style="text;html=1;strokeColor=none;fillColor=none;align=center;verticalAlign=middle;whiteSpace=wrap;rounded=0;" vertex="1" parent="1">
          <mxGeometry x="600" y="860" width="40" height="20" as="geometry" />
        </mxCell>
        <mxCell id="Dt_2Gqz261RkF5YnjLIy-5" value="&lt;font style=&quot;font-size: 17px&quot;&gt;&lt;b&gt;&amp;lt;Footer /&amp;gt;&lt;/b&gt;&lt;/font&gt;" style="text;html=1;strokeColor=none;fillColor=none;align=center;verticalAlign=middle;whiteSpace=wrap;rounded=0;" vertex="1" parent="1">
          <mxGeometry x="898" y="1053" width="140" height="30" as="geometry" />
        </mxCell>
        <mxCell id="Dt_2Gqz261RkF5YnjLIy-6" value="" style="rounded=1;whiteSpace=wrap;html=1;strokeWidth=3;fillColor=none;strokeColor=#EA6B66;" vertex="1" parent="1">
          <mxGeometry x="280" y="60" width="710" height="70" as="geometry" />
        </mxCell>
        <mxCell id="Dt_2Gqz261RkF5YnjLIy-7" value="&lt;font style=&quot;font-size: 17px&quot;&gt;&lt;b&gt;&amp;lt;searchByLocation /&amp;gt;&lt;/b&gt;&lt;/font&gt;" style="text;html=1;strokeColor=none;fillColor=none;align=center;verticalAlign=middle;whiteSpace=wrap;rounded=0;" vertex="1" parent="1">
          <mxGeometry x="300" y="57" width="190" height="45" as="geometry" />
        </mxCell>
        <mxCell id="Dt_2Gqz261RkF5YnjLIy-8" value="" style="rounded=1;whiteSpace=wrap;html=1;strokeWidth=3;fillColor=none;strokeColor=#A680B8;" vertex="1" parent="1">
          <mxGeometry x="30" y="80" width="230" height="120" as="geometry" />
        </mxCell>
        <mxCell id="Dt_2Gqz261RkF5YnjLIy-9" value="&lt;font style=&quot;font-size: 17px&quot;&gt;&lt;b&gt;&amp;lt;Navigation /&amp;gt;&lt;/b&gt;&lt;/font&gt;" style="text;html=1;strokeColor=none;fillColor=none;align=center;verticalAlign=middle;whiteSpace=wrap;rounded=0;" vertex="1" parent="1">
          <mxGeometry x="70" y="120" width="140" height="27" as="geometry" />
        </mxCell>
        <mxCell id="Dt_2Gqz261RkF5YnjLIy-10" value="" style="rounded=1;whiteSpace=wrap;html=1;strokeWidth=3;fillColor=none;strokeColor=#EA6B66;" vertex="1" parent="1">
          <mxGeometry x="1000" y="130" width="120" height="720" as="geometry" />
        </mxCell>
        <mxCell id="Dt_2Gqz261RkF5YnjLIy-11" value="&lt;font style=&quot;font-size: 17px&quot;&gt;&lt;b&gt;&amp;lt;searchByLocation /&amp;gt;&lt;/b&gt;&lt;/font&gt;" style="text;html=1;strokeColor=none;fillColor=none;align=center;verticalAlign=middle;whiteSpace=wrap;rounded=0;" vertex="1" parent="1">
          <mxGeometry x="1000" y="800" width="180" height="60" as="geometry" />
        </mxCell>
        <mxCell id="Dt_2Gqz261RkF5YnjLIy-12" value="" style="rounded=1;whiteSpace=wrap;html=1;strokeWidth=3;fillColor=none;strokeColor=#7EA6E0;" vertex="1" parent="1">
          <mxGeometry x="280" y="143" width="240" height="40" as="geometry" />
        </mxCell>
        <mxCell id="Dt_2Gqz261RkF5YnjLIy-13" value="" style="rounded=1;whiteSpace=wrap;html=1;strokeWidth=3;fillColor=none;strokeColor=#7EA6E0;" vertex="1" parent="1">
          <mxGeometry x="550" y="143" width="240" height="40" as="geometry" />
        </mxCell>
        <mxCell id="Dt_2Gqz261RkF5YnjLIy-14" value="" style="rounded=1;whiteSpace=wrap;html=1;strokeWidth=3;fillColor=none;strokeColor=#7EA6E0;" vertex="1" parent="1">
          <mxGeometry x="822" y="140" width="170" height="39" as="geometry" />
        </mxCell>
        <mxCell id="Dt_2Gqz261RkF5YnjLIy-15" value="" style="rounded=1;whiteSpace=wrap;html=1;strokeWidth=3;fillColor=none;strokeColor=#7EA6E0;" vertex="1" parent="1">
          <mxGeometry x="275" y="370" width="240" height="50" as="geometry" />
        </mxCell>
        <mxCell id="Dt_2Gqz261RkF5YnjLIy-16" value="" style="rounded=1;whiteSpace=wrap;html=1;strokeWidth=3;fillColor=none;strokeColor=#7EA6E0;" vertex="1" parent="1">
          <mxGeometry x="540" y="400" width="240" height="40" as="geometry" />
        </mxCell>
        <mxCell id="Dt_2Gqz261RkF5YnjLIy-17" value="" style="rounded=1;whiteSpace=wrap;html=1;strokeWidth=3;fillColor=none;strokeColor=#E02510;" vertex="1" parent="1">
          <mxGeometry x="275" y="630" width="240" height="50" as="geometry" />
        </mxCell>
        <mxCell id="Dt_2Gqz261RkF5YnjLIy-18" value="" style="rounded=1;whiteSpace=wrap;html=1;strokeWidth=3;fillColor=none;strokeColor=#7EA6E0;" vertex="1" parent="1">
          <mxGeometry x="810" y="840" width="170" height="50" as="geometry" />
        </mxCell>
        <mxCell id="Dt_2Gqz261RkF5YnjLIy-19" value="" style="rounded=1;whiteSpace=wrap;html=1;strokeWidth=3;fillColor=none;strokeColor=#7EA6E0;" vertex="1" parent="1">
          <mxGeometry x="810" y="970" width="170" height="50" as="geometry" />
        </mxCell>
        <mxCell id="Dt_2Gqz261RkF5YnjLIy-20" value="&lt;font style=&quot;font-size: 14px&quot;&gt;&lt;b&gt;&amp;lt;GENERAL CATEGORY /&amp;gt;&lt;/b&gt;&lt;/font&gt;" style="text;html=1;strokeColor=none;fillColor=none;align=center;verticalAlign=middle;whiteSpace=wrap;rounded=0;" vertex="1" parent="1">
          <mxGeometry x="290" y="140" width="220" height="20" as="geometry" />
        </mxCell>
        <mxCell id="Dt_2Gqz261RkF5YnjLIy-21" value="&lt;font style=&quot;font-size: 14px&quot;&gt;&lt;b&gt;&amp;lt;GENERAL CATEGORY /&amp;gt;&lt;/b&gt;&lt;/font&gt;" style="text;html=1;strokeColor=none;fillColor=none;align=center;verticalAlign=middle;whiteSpace=wrap;rounded=0;" vertex="1" parent="1">
          <mxGeometry x="560" y="143" width="220" height="20" as="geometry" />
        </mxCell>
        <mxCell id="Dt_2Gqz261RkF5YnjLIy-22" value="&lt;font style=&quot;font-size: 14px&quot;&gt;&lt;b&gt;&amp;lt;GENERAL CATEGORY /&amp;gt;&lt;/b&gt;&lt;/font&gt;" style="text;html=1;strokeColor=none;fillColor=none;align=center;verticalAlign=middle;whiteSpace=wrap;rounded=0;" vertex="1" parent="1">
          <mxGeometry x="275" y="372" width="220" height="20" as="geometry" />
        </mxCell>
        <mxCell id="Dt_2Gqz261RkF5YnjLIy-24" value="&lt;font style=&quot;font-size: 14px&quot;&gt;&lt;b&gt;&amp;lt;GENERAL CATEGORY /&amp;gt;&lt;/b&gt;&lt;/font&gt;" style="text;html=1;strokeColor=none;fillColor=none;align=center;verticalAlign=middle;whiteSpace=wrap;rounded=0;" vertex="1" parent="1">
          <mxGeometry x="540" y="400" width="220" height="20" as="geometry" />
        </mxCell>
        <mxCell id="Dt_2Gqz261RkF5YnjLIy-25" value="&lt;font style=&quot;font-size: 14px&quot;&gt;&lt;b&gt;&amp;lt;GENERAL CATEGORY /&amp;gt;&lt;/b&gt;&lt;/font&gt;" style="text;html=1;strokeColor=none;fillColor=none;align=center;verticalAlign=middle;whiteSpace=wrap;rounded=0;" vertex="1" parent="1">
          <mxGeometry x="797" y="140" width="220" height="20" as="geometry" />
        </mxCell>
        <mxCell id="Dt_2Gqz261RkF5YnjLIy-26" value="&lt;font style=&quot;font-size: 14px&quot;&gt;&lt;b&gt;&amp;lt;GENERAL CATEGORY /&amp;gt;&lt;/b&gt;&lt;/font&gt;" style="text;html=1;strokeColor=none;fillColor=none;align=center;verticalAlign=middle;whiteSpace=wrap;rounded=0;" vertex="1" parent="1">
          <mxGeometry x="785" y="843" width="220" height="20" as="geometry" />
        </mxCell>
        <mxCell id="Dt_2Gqz261RkF5YnjLIy-27" value="&lt;font style=&quot;font-size: 14px&quot;&gt;&lt;b&gt;&amp;lt;GENERAL CATEGORY /&amp;gt;&lt;/b&gt;&lt;/font&gt;" style="text;html=1;strokeColor=none;fillColor=none;align=center;verticalAlign=middle;whiteSpace=wrap;rounded=0;" vertex="1" parent="1">
          <mxGeometry x="786" y="962" width="220" height="40" as="geometry" />
        </mxCell>
        <mxCell id="Dt_2Gqz261RkF5YnjLIy-30" value="" style="rounded=0;whiteSpace=wrap;html=1;strokeColor=#67AB9F;strokeWidth=3;fillColor=none;" vertex="1" parent="1">
          <mxGeometry x="275" y="183" width="245" height="187" as="geometry" />
        </mxCell>
        <mxCell id="Dt_2Gqz261RkF5YnjLIy-31" value="" style="rounded=0;whiteSpace=wrap;html=1;strokeColor=#67AB9F;strokeWidth=3;fillColor=none;" vertex="1" parent="1">
          <mxGeometry x="535" y="185" width="275" height="215" as="geometry" />
        </mxCell>
        <mxCell id="Dt_2Gqz261RkF5YnjLIy-32" value="" style="rounded=0;whiteSpace=wrap;html=1;strokeColor=#67AB9F;strokeWidth=3;fillColor=none;" vertex="1" parent="1">
          <mxGeometry x="265" y="420" width="255" height="210" as="geometry" />
        </mxCell>
        <mxCell id="Dt_2Gqz261RkF5YnjLIy-33" value="" style="rounded=0;whiteSpace=wrap;html=1;strokeColor=#67AB9F;strokeWidth=3;fillColor=none;" vertex="1" parent="1">
          <mxGeometry x="530" y="445" width="255" height="535" as="geometry" />
        </mxCell>
        <mxCell id="Dt_2Gqz261RkF5YnjLIy-34" value="" style="rounded=0;whiteSpace=wrap;html=1;strokeColor=#67AB9F;strokeWidth=3;fillColor=none;" vertex="1" parent="1">
          <mxGeometry x="810" y="185" width="180" height="655" as="geometry" />
        </mxCell>
        <mxCell id="Dt_2Gqz261RkF5YnjLIy-35" value="" style="rounded=0;whiteSpace=wrap;html=1;strokeWidth=3;fillColor=none;strokeColor=#00F020;" vertex="1" parent="1">
          <mxGeometry x="268" y="680" width="245" height="350" as="geometry" />
        </mxCell>
        <mxCell id="Dt_2Gqz261RkF5YnjLIy-36" value="" style="rounded=0;whiteSpace=wrap;html=1;strokeColor=#67AB9F;strokeWidth=3;fillColor=none;" vertex="1" parent="1">
          <mxGeometry x="810" y="890" width="170" height="80" as="geometry" />
        </mxCell>
        <mxCell id="Dt_2Gqz261RkF5YnjLIy-37" value="&lt;font style=&quot;font-size: 14px&quot;&gt;&lt;b&gt;&amp;lt;Specific Cat /&amp;gt;&lt;/b&gt;&lt;/font&gt;" style="text;html=1;strokeColor=none;fillColor=none;align=center;verticalAlign=middle;whiteSpace=wrap;rounded=0;" vertex="1" parent="1">
          <mxGeometry x="420" y="266.5" width="90" height="43.5" as="geometry" />
        </mxCell>
        <mxCell id="Dt_2Gqz261RkF5YnjLIy-38" value="&lt;font style=&quot;font-size: 14px&quot;&gt;&lt;b&gt;&amp;lt;Specific Cat /&amp;gt;&lt;/b&gt;&lt;/font&gt;" style="text;html=1;strokeColor=none;fillColor=none;align=center;verticalAlign=middle;whiteSpace=wrap;rounded=0;" vertex="1" parent="1">
          <mxGeometry x="696" y="250" width="90" height="43.5" as="geometry" />
        </mxCell>
        <mxCell id="Dt_2Gqz261RkF5YnjLIy-39" value="&lt;font style=&quot;font-size: 14px&quot;&gt;&lt;b&gt;&amp;lt;Specific Cat /&amp;gt;&lt;/b&gt;&lt;/font&gt;" style="text;html=1;strokeColor=none;fillColor=none;align=center;verticalAlign=middle;whiteSpace=wrap;rounded=0;" vertex="1" parent="1">
          <mxGeometry x="890" y="328.5" width="90" height="43.5" as="geometry" />
        </mxCell>
        <mxCell id="Dt_2Gqz261RkF5YnjLIy-40" value="&lt;font style=&quot;font-size: 14px&quot;&gt;&lt;b&gt;&amp;lt;Specific Cat /&amp;gt;&lt;/b&gt;&lt;/font&gt;" style="text;html=1;strokeColor=none;fillColor=none;align=center;verticalAlign=middle;whiteSpace=wrap;rounded=0;" vertex="1" parent="1">
          <mxGeometry x="940" y="900" width="90" height="43.5" as="geometry" />
        </mxCell>
        <mxCell id="Dt_2Gqz261RkF5YnjLIy-41" value="&lt;font style=&quot;font-size: 14px&quot;&gt;&lt;b&gt;&amp;lt;Specific Cat /&amp;gt;&lt;/b&gt;&lt;/font&gt;" style="text;html=1;strokeColor=none;fillColor=none;align=center;verticalAlign=middle;whiteSpace=wrap;rounded=0;" vertex="1" parent="1">
          <mxGeometry x="430" y="460" width="90" height="43.5" as="geometry" />
        </mxCell>
        <mxCell id="Dt_2Gqz261RkF5YnjLIy-43" value="&lt;font style=&quot;font-size: 14px&quot;&gt;&lt;b&gt;&amp;lt;Specific Cat /&amp;gt;&lt;/b&gt;&lt;/font&gt;" style="text;html=1;strokeColor=none;fillColor=none;align=center;verticalAlign=middle;whiteSpace=wrap;rounded=0;" vertex="1" parent="1">
          <mxGeometry x="625" y="933" width="90" height="43.5" as="geometry" />
        </mxCell>
        <mxCell id="Dt_2Gqz261RkF5YnjLIy-45" value="" style="rounded=1;whiteSpace=wrap;html=1;strokeWidth=4;fillColor=none;strokeColor=#FFB570;" vertex="1" parent="1">
          <mxGeometry x="30" y="420" width="230" height="470" as="geometry" />
        </mxCell>
        <mxCell id="Dt_2Gqz261RkF5YnjLIy-48" value="&lt;font style=&quot;font-size: 15px&quot;&gt;&lt;b&gt;&amp;lt;About /&amp;gt;&lt;/b&gt;&lt;/font&gt;" style="text;html=1;strokeColor=none;fillColor=none;align=center;verticalAlign=middle;whiteSpace=wrap;rounded=0;" vertex="1" parent="1">
          <mxGeometry x="70" y="830" width="170" height="20" as="geometry" />
        </mxCell>
        <mxCell id="Dt_2Gqz261RkF5YnjLIy-49" value="&lt;font style=&quot;font-size: 14px&quot;&gt;&lt;b&gt;&amp;lt;Discussion Forums Index Pg /&amp;gt;&lt;/b&gt;&lt;/font&gt;" style="text;html=1;strokeColor=none;fillColor=none;align=center;verticalAlign=middle;whiteSpace=wrap;rounded=0;" vertex="1" parent="1">
          <mxGeometry x="236" y="633" width="290" height="20" as="geometry" />
        </mxCell>
        <mxCell id="Dt_2Gqz261RkF5YnjLIy-50" value="&lt;font style=&quot;font-size: 14px&quot;&gt;&lt;b&gt;&amp;lt;Specific Forum /&amp;gt;&lt;/b&gt;&lt;/font&gt;" style="text;html=1;strokeColor=none;fillColor=none;align=center;verticalAlign=middle;whiteSpace=wrap;rounded=0;" vertex="1" parent="1">
          <mxGeometry x="186" y="1005.5" width="162" height="4.5" as="geometry" />
        </mxCell>
        <mxCell id="Dt_2Gqz261RkF5YnjLIy-58" value="&lt;h1&gt;Proposed Categories&lt;/h1&gt;&lt;p&gt;1) Search&amp;nbsp;&amp;nbsp;&lt;/p&gt;&lt;p&gt;&amp;nbsp; 1.1) Search by Location&lt;/p&gt;&lt;p&gt;&amp;nbsp; &amp;nbsp;1.2) Search by Date&lt;/p&gt;&lt;p&gt;2) Navigation&amp;nbsp;&lt;/p&gt;&lt;p&gt;3) About&lt;/p&gt;&lt;p&gt;4) General Categories&lt;/p&gt;&lt;p&gt;&amp;nbsp; &amp;nbsp;4.1) Specific Categories&lt;/p&gt;&lt;p&gt;5) Discussion Forum&amp;nbsp;&lt;/p&gt;&lt;p&gt;&amp;nbsp; 5.1) Specific Forum&lt;/p&gt;&lt;p&gt;6) Language&lt;/p&gt;&lt;p&gt;7) Footer&lt;/p&gt;&lt;p&gt;&lt;br&gt;&lt;/p&gt;&lt;p&gt;&lt;br&gt;&lt;/p&gt;" style="text;html=1;strokeColor=none;fillColor=none;spacing=5;spacingTop=-20;whiteSpace=wrap;overflow=hidden;rounded=0;" vertex="1" parent="1">
          <mxGeometry x="1280" y="140" width="180" height="370" as="geometry" />
        </mxCell>
        <mxCell id="Dt_2Gqz261RkF5YnjLIy-59" value="" style="rounded=1;whiteSpace=wrap;html=1;strokeWidth=4;fillColor=none;strokeColor=#0F00E0;" vertex="1" parent="1">
          <mxGeometry x="40" y="206.5" width="220" height="43.5" as="geometry" />
        </mxCell>
        <mxCell id="Dt_2Gqz261RkF5YnjLIy-60" value="&lt;font style=&quot;font-size: 14px&quot;&gt;&lt;b&gt;&amp;lt;Search /&amp;gt;&lt;/b&gt;&lt;/font&gt;" style="text;html=1;strokeColor=none;fillColor=none;align=center;verticalAlign=middle;whiteSpace=wrap;rounded=0;" vertex="1" parent="1">
          <mxGeometry x="126" y="206.5" width="110" height="20" as="geometry" />
        </mxCell>
        <mxCell id="Dt_2Gqz261RkF5YnjLIy-61" value="" style="rounded=0;whiteSpace=wrap;html=1;strokeWidth=4;fillColor=none;strokeColor=#00FFFF;" vertex="1" parent="1">
          <mxGeometry x="40" y="258.25" width="210" height="151.75" as="geometry" />
        </mxCell>
        <mxCell id="Dt_2Gqz261RkF5YnjLIy-62" value="&lt;font style=&quot;font-size: 14px&quot;&gt;&lt;b&gt;&amp;lt;Search by Date /&amp;gt;&lt;/b&gt;&lt;/font&gt;" style="text;html=1;strokeColor=none;fillColor=none;align=center;verticalAlign=middle;whiteSpace=wrap;rounded=0;" vertex="1" parent="1">
          <mxGeometry x="70" y="385" width="140" height="20" as="geometry" />
        </mxCell>
        <mxCell id="Dt_2Gqz261RkF5YnjLIy-63" value="" style="rounded=0;whiteSpace=wrap;html=1;strokeWidth=4;fillColor=none;strokeColor=#EAFF29;" vertex="1" parent="1">
          <mxGeometry x="1000" y="65" width="160" height="60" as="geometry" />
        </mxCell>
        <mxCell id="Dt_2Gqz261RkF5YnjLIy-64" value="&lt;font style=&quot;font-size: 14px&quot;&gt;&lt;b&gt;&amp;lt;Language /&amp;gt;&lt;/b&gt;&lt;/font&gt;" style="text;html=1;strokeColor=none;fillColor=none;align=center;verticalAlign=middle;whiteSpace=wrap;rounded=0;" vertex="1" parent="1">
          <mxGeometry x="1040" y="69.5" width="110" height="20" as="geometry" />
        </mxCell>
      </root>
    </mxGraphModel>
  </diagram>
</mxfile>
